<svg xmlns="http://www.w3.org/2000/svg" width="133" height="133" fill="none"><path fill="#A7846E" d="M0 0h133v133H0z"/><path fill="#fff" d="M103.152 50.414c-8.347 1.686-17.577 4.896-24.88 9.952-1.525-8.667-5.699-17.576-10.514-24.64a1.426 1.426 0 0 0-2.328 0c-4.735 6.983-8.989 16.053-10.594 24.56-7.223-4.896-16.293-8.267-24.8-9.952a1.379 1.379 0 0 0-1.605 1.605c.08.562 2.488 13.724 9.39 24.078h-4.655c-.883 0-1.525.803-1.364 1.685 1.364 7.224 7.624 12.36 15.008 12.36h.401c-1.525 1.445-2.568 3.29-2.889 5.378-.16.882.481 1.685 1.364 1.685h12.44a9.995 9.995 0 0 0 8.508-4.735c1.846 2.89 5.056 4.655 8.507 4.735h12.44c.883 0 1.525-.803 1.365-1.685-.401-2.087-1.445-3.933-2.89-5.378h.482c7.304 0 13.564-5.217 15.009-12.36.16-.882-.482-1.685-1.365-1.685h-4.655c6.902-10.353 9.31-23.516 9.39-24.078.081-.883-.802-1.685-1.765-1.525ZM66.634 39.098c4.334 6.902 7.946 15.089 9.15 23.114-4.495 3.772-7.384 8.026-9.15 13.323-1.605-4.976-4.735-9.63-9.15-13.323 1.124-7.865 4.977-16.372 9.15-23.114ZM31.64 53.625c11.236 2.568 18.46 6.5 23.436 10.353 6.02 4.735 9.39 11.317 10.112 18.219-2.809-3.772-7.383-6.1-12.2-6.1H41.273c-5.698-7.785-8.588-18.138-9.63-22.472ZM46.81 87.333c-5.297 0-10.032-3.37-11.798-8.427H53.07c5.137 0 9.952 3.29 11.718 8.427-1.605.08-.24 0-17.978 0Zm11.316 7.063H47.614c1.203-2.568 3.772-4.254 6.58-4.254h10.515c-1.204 2.569-3.772 4.254-6.581 4.254Zm27.449 0H75.061c-2.809 0-5.377-1.685-6.581-4.254h10.514c2.89 0 5.457 1.686 6.581 4.254Zm.883-7.063H68.48c1.685-5.056 6.5-8.427 11.718-8.427h18.058c-1.686 5.056-6.42 8.427-11.798 8.427Zm5.538-11.236H80.198c-4.736 0-9.39 2.328-12.2 6.1.723-6.983 4.094-13.564 10.113-18.3 6.742-5.136 15.25-8.426 23.436-10.353-.964 4.415-3.853 14.768-9.551 22.553Z"/></svg>