<svg xmlns="http://www.w3.org/2000/svg" width="133" height="133" fill="none"><path fill="#DDD2C5" d="M0 0h133v133H0z"/><path fill="#fff" d="M92.654 81.958c0-5.88-2.011-10.52-4.873-11.604V51.092c0-10.676-8.278-19.572-18.954-20.268v-2.321c0-.774-.618-1.393-1.392-1.393-.773 0-1.392.62-1.392 1.393v2.32c-10.676.697-18.954 9.593-18.954 20.269v19.262c-2.862 1.16-4.873 5.725-4.873 11.604 0 6.808 2.63 11.914 6.189 11.914 3.868 0 5.415-5.88 5.337-5.802.31-.774.851-3.327.851-6.112 0-5.88-2.011-10.52-4.873-11.604v-9.206c3.404 5.88 9.515 9.748 16.323 10.212v2.32a4.479 4.479 0 0 0-2.863 5.648c.464 1.392 1.548 2.475 2.94 2.862v2.089c-2.32 1.006-4.023 4.41-4.023 8.819 0 5.183 2.321 9.051 5.415 9.051 3.095 0 5.416-3.868 5.416-9.051 0-4.332-1.702-7.813-4.1-8.742v-2.088a4.586 4.586 0 0 0 2.94-5.648 4.635 4.635 0 0 0-2.94-2.94v-2.32c6.807-.464 12.919-4.255 16.245-10.134v9.128c-2.862 1.16-4.874 5.725-4.874 11.604 0 6.808 2.63 11.914 6.19 11.914 4.1 0 5.57-6.653 5.492-6.19.619-2.01.773-3.635.773-5.724Zm-42.857 8.278v-8.742l2.089 2.089c-.232 3.094-1.083 5.492-2.089 6.653Zm-2.707 0c-.697-.929-1.16-2.012-1.47-3.095l1.47-1.47v4.565Zm0-16.555v8.2l-2.012 2.011c-.077-.619-.077-1.238-.077-1.934 0-3.945 1.005-6.885 2.089-8.277Zm4.718 5.956-2.01-2.01v-4.024c1.237 1.857 1.933 3.946 2.01 6.034Zm4.178-28.545c0-6.19 4.873-11.295 11.217-11.45 6.42-.154 11.759 4.951 11.759 11.45 0 6.343-5.183 11.449-11.527 11.449-6.343 0-11.45-5.183-11.45-11.45Zm-6.189 0c0-9.206 7.117-16.865 16.246-17.56v3.403c-7.35.696-12.842 6.807-12.842 14.002 0 4.177 1.78 8.123 4.873 10.83l-2.01 2.785c-3.946-3.404-6.267-8.277-6.267-13.46Zm8.51 15.008 2.011-2.785c1.78 1.005 3.713 1.701 5.725 1.856l.077 3.404c-2.785-.155-5.493-1.006-7.813-2.475Zm7.89 21.583v10.675a9.375 9.375 0 0 1-1.392-5.337 9.375 9.375 0 0 1 1.392-5.338Zm4.1 5.415a9.374 9.374 0 0 1-1.392 5.338V87.683c.928 1.624 1.47 3.481 1.392 5.415Zm-2.785-13.383c-1.005 0-1.779-.851-1.701-1.78 0-.928.773-1.701 1.701-1.701 1.006 0 1.78.85 1.702 1.779 0 .928-.696 1.624-1.702 1.702ZM68.75 65.17c2.089-.155 4.1-.85 5.88-1.934l2.01 2.785c-2.397 1.47-5.105 2.32-7.89 2.553v-3.404Zm10.057-.619-2.011-2.862c3.171-2.785 4.796-6.73 4.873-10.676 0-7.349-5.57-13.46-12.841-14.157v-3.403c9.67.773 16.941 9.206 16.245 18.876-.387 4.796-2.63 9.128-6.266 12.222ZM89.25 87.296c-.31 1.083-.774 2.089-1.393 2.94v-9.051l2.089 2.088c-.155 1.393-.31 2.708-.697 4.023Zm-4.178 2.94c-.696-.929-1.16-2.012-1.47-3.095l1.47-1.47v4.565Zm4.719-10.908-1.934-1.934v-3.636a11.731 11.731 0 0 1 1.934 5.57Zm-4.719-5.647v8.2l-2.011 2.011c-.078-.619-.078-1.238-.078-1.934 0-3.945 1.006-6.885 2.09-8.277Z"/></svg>