<svg xmlns="http://www.w3.org/2000/svg" width="133" height="133" fill="none"><path fill="#C1AD9D" d="M0 0h133v133H0z"/><path fill="#FFFFFE" d="M28.963 82.861a1.643 1.643 0 1 1 .36-3.266l16.64 1.89c10.931 1.241 13.221 4.566 15.015 7.17.787 1.142 1.436 2.085 3.293 2.33l.43.057h.006c.686.095.843.116 2.719.116 1.875 0 2.032-.021 2.718-.116.018-.002.035-.005.053-.006l.383-.051c1.857-.245 2.506-1.188 3.293-2.33 1.794-2.604 4.084-5.929 15.014-7.17l15.79-1.793a1.643 1.643 0 1 1 .36 3.266l-15.79 1.793c-9.439 1.072-11.253 3.706-12.674 5.768-1.238 1.798-2.26 3.283-5.569 3.719l-.36.05a2.044 2.044 0 0 1-.05.007c-.913.126-1.123.155-3.169.155-2.045 0-2.255-.029-3.168-.155l-.41-.057c-3.308-.436-4.331-1.921-5.57-3.719-1.42-2.063-3.234-4.696-12.673-5.768l-16.641-1.89Z"/><path fill="#FFFFFE" d="M33.836 81.756a1.643 1.643 0 1 1-3.266-.36l.877-7.722c.099-.902.91-1.553 1.813-1.454l16.023 1.82c11.42 1.297 13.047 2.85 16.424 6.073.513.49 1.072 1.023 1.737 1.612.662-.571 1.226-1.103 1.75-1.596 3.23-3.043 5.106-4.81 16.374-6.089l16.024-1.82a1.643 1.643 0 0 1 1.816 1.78l-.188 6.73a1.64 1.64 0 0 1-3.28-.09l.139-4.94-14.15 1.606c-10.175 1.156-11.758 2.647-14.485 5.215-.82.772-1.733 1.632-2.944 2.597a1.644 1.644 0 0 1-2.122.023c-1.194-.988-2.118-1.87-2.934-2.65-2.838-2.708-4.206-4.013-14.52-5.184L34.526 75.67l-.691 6.085Z"/><path fill="#FFFFFE" d="M34.63 74.394a1.64 1.64 0 1 1-3.1-1.08l7.81-22.246a1.64 1.64 0 0 1 2.337-.9c4.52 2.196 7.856 2.065 11.049 1.939 4.325-.171 8.422-.332 14.46 4.066 6.28-5.966 10.435-5.545 15.242-5.057 3.01.306 6.316.642 10.753-1.044a1.642 1.642 0 0 1 2.154 1.071l7.98 22.158a1.64 1.64 0 0 1-3.086 1.105l-7.463-20.72c-4.35 1.337-7.639 1.003-10.66.696-4.214-.428-7.827-.794-13.566 5.066a1.643 1.643 0 0 1-2.238.18c-5.733-4.547-9.479-4.399-13.447-4.242-3.217.127-6.563.26-11.008-1.552l-7.218 20.56Z"/><path fill="#FFFFFE" d="M68.633 55.54v28.334H65.34V55.54h3.292Z"/></svg>